# AST/ASF file generated using VICON BodyLanguage
# -----------------------------------------------
:version 1.10
:name VICON
:units
  mass 1.0
  length 0.45
  angle deg
:documentation
   .ast/.asf automatically generated from VICON data using
   VICON BodyBuilder and BodyLanguage model FoxedUp or BRILLIANT.MOD
:root
   order TX TY TZ RX RY RZ
   axis XYZ
   position 0 0 0  
   orientation 0 0 0 
:bonedata
  begin
     id 1 
     name lhipjoint
     direction 0.646821 -0.743844 0.168282 
     length 2.62284 
     axis 0 0 0  XYZ
  end
  begin
     id 2 
     name lfemur
     direction 0.34202 -0.939693 0  
     length 7.79098  
     axis 0 0 20  XYZ
    dof rx ry rz
    limits (-160.0 20.0)
           (-70.0 70.0)
           (-60.0 70.0)
  end
  begin
     id 3 
     name ltibia
     direction 0.34202 -0.939693 0   
     length 8.1986   
     axis 0 0 20   XYZ
    dof rx
    limits (-10.0 170.0)
  end
  begin
     id 4 
     name lfoot
     direction 0.0766762 -0.210666 0.974546   
     length 1.95107   
     axis -90 7.62852e-016 20   XYZ
    dof rx rz
    limits (-45.0 90.0)
           (-70.0 20.0)
  end
  begin
     id 5 
     name ltoes
     direction 1.53582e-011 -4.21539e-011 1   
     length 0.983514   
     axis -90 7.62852e-016 20   XYZ
    dof rx
    limits (-90.0 20.0)
  end
  begin
     id 6 
     name rhipjoint
     direction -0.658967 -0.733632 0.165972   
     length 2.65935  
     axis 0 0 0  XYZ 
  end
  begin
     id 7 
     name rfemur
     direction -0.34202 -0.939693 0   
     length 7.69405   
     axis 0 0 -20   XYZ
    dof rx ry rz
    limits (-160.0 20.0)
           (-70.0 70.0)
           (-70.0 60.0)
  end
  begin
     id 8 
     name rtibia
     direction -0.34202 -0.939693 0   
     length 8.15138   
     axis 0 0 -20   XYZ
    dof rx
    limits (-10.0 170.0)
 end
 begin
     id 9 
     name rfoot
     direction -0.0806473 -0.221577 0.971802   
     length 2.09362  
     axis -90 -7.62852e-016 -20   XYZ
    dof rx rz
    limits (-45.0 90.0)
           (-20.0 70.0)
  end
  begin
     id 10 
     name rtoes
     direction -1.53524e-011 -4.2203e-011 1   
     length 1.05224   
     axis -90 -7.62852e-016 -20   XYZ
    dof rx
    limits (-90.0 20.0)
  end
  begin
     id 11 
     name lowerback
     direction -0.0484271 0.997202 0.0569433   
     length 1.86801   
     axis 0 0 0   XYZ
    dof rx ry rz
    limits (-20.0 45.0)
           (-30.0 30.0)
           (-30.0 30.0)
  end
  begin
     id 12 
     name upperback
     direction 0.0148864 0.998882 0.0448682   
     length 1.86634   
     axis 0 0 0   XYZ
    dof rx ry rz
    limits (-20.0 45.0)
           (-30.0 30.0)
           (-30.0 30.0)
  end
  begin
     id 13 
     name thorax
     direction 0.0368776 0.99918 0.0167067   
     length 1.87554   
     axis 0 0 0   XYZ
    dof rx ry rz
    limits (-20.0 45.0)
           (-30.0 30.0)
           (-30.0 30.0)
  end
  begin
     id 14 
     name lowerneck
     direction -0.0200531 0.999751 0.00976032   
     length 1.82429   
     axis 0 0 0   XYZ
    dof rx ry rz
    limits (-20.0 45.0)
           (-30.0 30.0)
           (-30.0 30.0)
  end
  begin
     id 15 
     name upperneck
     direction 0.0113135 0.99728 -0.0728357   
     length 1.79098   
     axis 0 0 0   XYZ
    dof rx ry rz
    limits (-20.0 45.0)
           (-30.0 30.0)
           (-30.0 30.0)
  end
  begin
     id 16
     name head
     direction 0.00559662 0.999607 -0.0274604  
     length 1.88003  
     axis 0 0 0   XYZ
    dof rx ry rz
    limits (-20.0 45.0)
           (-30.0 30.0)
           (-30.0 30.0)
  end
  begin
     id 17 
     name lclavicle
     direction 0.931914 0.362632 -0.00585704  
     length 3.94155  
     axis 0 0 0   XYZ
    dof ry rz
    limits (-20.0 10.0)
           (0.0 20.0)
  end
  begin
     id 18 
     name lhumerus
     direction 1 -4.48969e-011 2.13403e-027   
     length 5.77473   
     axis 180 -30 -90   XYZ
    dof rx ry rz
    limits (-60.0 90.0)
           (-90.0 90.0)
           (-90.0 90.0)
  end
  begin
     id 19
     name lradius
     direction 1 -4.48969e-011 5.41017e-027   
     length 3.53732   
     axis 180 -30 -90   XYZ
    dof rx
    limits (-10.0 170.0)
  end
  begin
     id 20
     name lwrist
     direction 1 -4.48986e-011 1.36145e-026   
     length 1.76866   
     axis -8.75986e-015 90 90   XYZ
    dof ry
    limits (-180.0 0.0)
 end
  begin
     id 21 
     name lhand
     direction 1 -4.48703e-011 2.72291e-026   
     length 0.556229   
     axis -1.73745e-014 90 90   XYZ
    dof rx rz
    limits (-90.0 90.0)
           (-45.0 45.0)
  end
  begin
     id 22 
     name lfingers
     direction 1 -4.49204e-011 5.44582e-026   
     length 0.448446   
     axis -3.4749e-014 90 90   XYZ
    dof rx
    limits (0.0 90.0)
  end
  begin
     id 23
     name lthumb
     direction 0.707107 -6.34773e-011 0.707107   
     length 0.643881   
     axis -90 45 2.85299e-015   XYZ
    dof rx rz
    limits (-45.0 45.0)
           (-45.0 45.0)
  end
  begin
     id 24 
     name rclavicle
     direction -0.951782 0.300043 0.0639076   
     length 3.96398  
     axis 0 0 0   XYZ 
    dof ry rz
    limits (-10.0 20.0)
           (-20.0 0.0)
  end
  begin
     id 25 
     name rhumerus
     direction -1 -4.48967e-011 6.14867e-028  
     length 5.79581   
     axis 180 30 90   XYZ
    dof rx ry rz
    limits (-90.0 60.0)
           (-90.0 90.0)
           (-90.0 90.0)
  end
  begin
     id 26 
     name rradius
     direction -1 -4.48966e-011 9.26908e-027   
     length 3.37412   
     axis 180 30 90   XYZ
    dof rx
    limits (-10.0 170.0)
  end
  begin
     id 27 
     name rwrist
     direction -1 -4.48999e-011 1.36145e-026   
     length 1.68706   
     axis -8.75986e-015 -90 -90   XYZ
    dof ry
    limits (-180.0 0.0)
  end
  begin
     id 28
     name rhand
     direction -1 -4.49032e-011 2.72291e-026   
     length 0.680496   
     axis -1.73745e-014 -90 -90   XYZ
    dof rx rz
    limits (-90.0 90.0)
           (-45.0 45.0)
  end
  begin
     id 29
     name rfingers
     direction -1 -4.48876e-011 5.44582e-026   
     length 0.548633   
     axis -3.4749e-014 -90 -90   XYZ
    dof rx
    limits (0.0 90.0)
  end
  begin
     id 30
     name rthumb
     direction -0.707107 -6.34964e-011 0.707107   
     length 0.787731   
     axis -90 -45 -2.85299e-015   XYZ
    dof rx rz
    limits (-45.0 45.0)
           (-45.0 45.0)
  end
:hierarchy
  begin
    root lhipjoint rhipjoint lowerback
    lhipjoint lfemur
    lfemur ltibia
    ltibia lfoot
    lfoot ltoes
    rhipjoint rfemur
    rfemur rtibia
    rtibia rfoot
    rfoot rtoes
    lowerback upperback
    upperback thorax
    thorax lowerneck lclavicle rclavicle
    lowerneck upperneck
    upperneck head
    lclavicle lhumerus
    lhumerus lradius
    lradius lwrist
    lwrist lhand lthumb
    lhand lfingers
    rclavicle rhumerus
    rhumerus rradius
    rradius rwrist
    rwrist rhand rthumb
    rhand rfingers
  end

#!OML:ASF H:\Terrain\Patient Classification 1\PaulMetrics\March1\PaulMetrics.ASF
:FULLY-SPECIFIED
:DEGREES
331
root 0.251057 18.1067 15.0551 -101.278 -81.8522 115.796
lowerback -5.19946 -1.69207 -6.52571
upperback -5.51379 -2.20504 1.52509
thorax -2.5197 -0.932371 5.1817
lowerneck -2.52125 -6.69999 -6.49377
upperneck 10.9708 -9.21045 3.92044
head 4.1768 -4.68158 1.80557
rclavicle 1.9307e-014 -4.77083e-015
rhumerus -60.4773 22.0023 -101.247
rradius 42.5558
rwrist -7.64615
rhand -5.53471 -31.8195
rfingers 7.12502
rthumb 20.2796 -60.7808
lclavicle 1.9307e-014 -4.77083e-015
lhumerus -47.449 -13.0083 81.3567
lradius 66.5374
lwrist 7.79706
lhand -21.1203 -7.65339
lfingers 7.12502
lthumb 5.25816 22.2614
rfemur -41.6415 -3.23993 26.4084
rtibia 32.9423
rfoot -7.65872 -16.4263
rtoes -9.54003
lfemur -12.0955 6.14063 -18.956
ltibia 51.2751
lfoot 7.83415 11.2961
ltoes -6.92911
332
root 0.0911509 18.0869 15.0094 -105.69 -81.6906 120.063
lowerback -5.18508 -1.60817 -6.30774
upperback -5.47178 -2.0993 1.4681
thorax -2.50436 -0.888738 5.00236
lowerneck -2.43174 -6.6954 -6.49791
upperneck 11.0116 -9.23243 4.07128
head 4.18244 -4.68861 1.85306
rclavicle 2.16178e-015 3.97569e-015
rhumerus -60.3817 22.2996 -101.473
rradius 42.77
rwrist -8.25227
rhand -3.68381 -31.4349
rfingers 7.12502
rthumb 22.0576 -60.1969
lclavicle 2.16178e-015 3.97569e-015
lhumerus -47.8297 -13.0322 81.7567
lradius 65.5518
lwrist 7.04812
lhand -20.4849 -7.93761
lfingers 7.12502
lthumb 5.87166 21.961
rfemur -41.2174 -3.49349 26.8842
rtibia 33.5586
rfoot -8.53862 -15.551
rtoes -8.4766
lfemur -13.3667 6.32407 -18.7582
ltibia 53.8279
lfoot 8.67783 10.2316
ltoes -9.75913
333
root -0.0694199 18.0947 14.9654 -110.239 -81.552 124.527
lowerback -5.18316 -1.48621 -5.88939
upperback -5.44838 -1.94951 1.39852
thorax -2.51064 -0.828926 4.6984
lowerneck -2.40472 -6.72865 -6.50367
upperneck 11.0945 -9.307 4.25071
head 4.21561 -4.71943 1.9033
rclavicle -1.75676e-014 -2.38542e-015
rhumerus -60.1529 22.228 -101.453
rradius 42.937
rwrist -8.43341
rhand -12.4271 -34.8181
rfingers 7.12502
rthumb 13.6454 -64.3508
lclavicle -1.75676e-014 -2.38542e-015
lhumerus -48.2305 -13.1332 82.2452
lradius 64.5964
lwrist 6.24714
lhand -20.1092 -8.0894
lfingers 7.12502
lthumb 6.23441 21.7989
rfemur -40.6537 -2.00244 26.6832
rtibia 34.0997
rfoot -9.29282 -16.5722
rtoes -7.31638
lfemur -14.633 6.29938 -18.4822
ltibia 56.1787
lfoot 8.60854 8.88336
ltoes -11.4876
334
root -0.224045 18.0854 14.9198 -114.401 -81.4489 128.478
lowerback -4.99076 -1.41567 -5.60087
upperback -5.38014 -1.86858 1.44431
thorax -2.56034 -0.795007 4.59006
lowerneck -2.60403 -6.71142 -6.39812
upperneck 11.3229 -9.26999 4.07085
head 4.30313 -4.70416 1.82345
rclavicle 4.44781e-015 1.11319e-014
rhumerus -59.8389 22.2815 -101.18
rradius 43.128
rwrist -8.43469
rhand -13.5947 -35.2721
rfingers 7.12502
rthumb 12.5198 -64.877
lclavicle 4.44781e-015 1.11319e-014
lhumerus -48.552 -12.9292 82.7443
lradius 63.6382
lwrist 5.30758
lhand -19.5392 -8.22737
lfingers 7.12502
lthumb 6.78463 21.6439
rfemur -40.0779 -1.71562 27.0637
rtibia 34.642
rfoot -9.98294 -16.503
rtoes -8.05046
lfemur -15.8068 6.21029 -18.1312
ltibia 58.4551
lfoot 7.94987 7.61218
ltoes -11.3685
335
root -0.378141 18.0706 14.8724 -118.013 -81.3375 131.952
lowerback -4.98834 -1.37217 -5.40415
upperback -5.24744 -1.80649 1.5362
thorax -2.43102 -0.773268 4.57438
lowerneck -2.86595 -6.69148 -6.28051
upperneck 11.4735 -9.21839 3.88306
head 4.37589 -4.67934 1.73924
rclavicle 2.80535e-014 -1.98785e-014
rhumerus -59.5602 22.8022 -101.044
rradius 43.5111
rwrist -8.95655
rhand -10.7337 -34.0023
rfingers 7.12502
rthumb 15.277 -63.4182
lclavicle 2.80535e-014 -1.98785e-014
lhumerus -48.6355 -12.7061 83.2506
lradius 62.5181
lwrist 4.62857
lhand -18.8486 -8.91678
lfingers 7.12502
lthumb 7.45134 20.932
rfemur -39.506 -1.63338 27.4898
rtibia 35.0575
rfoot -10.9474 -16.0975
rtoes -7.3816
lfemur -17.061 6.03763 -17.8741
ltibia 60.5707
lfoot 7.3883 6.2346
ltoes -12.0801
336
root -0.528446 18.0444 14.8308 -122.367 -81.2088 136.387
lowerback -5.20463 -1.30169 -5.09317
upperback -5.20931 -1.70954 1.65279
thorax -2.28433 -0.738352 4.5176
lowerneck -2.87264 -6.67048 -6.09573
upperneck 11.4308 -9.19639 3.84729
head 4.35235 -4.66267 1.70163
rclavicle -9.56651e-015 -1.51076e-014
rhumerus -59.4024 23.4606 -101.069
rradius 43.8857
rwrist -9.55123
rhand -9.87935 -32.937
rfingers 7.12502
rthumb 16.0998 -62.2882
lclavicle -9.56651e-015 -1.51076e-014
lhumerus -48.8435 -12.6047 83.7961
lradius 61.372
lwrist 4.13401
lhand -18.07 -9.47131
lfingers 7.12502
lthumb 8.2028 20.3495
rfemur -39.2086 -1.44866 28.035
rtibia 35.4692
rfoot -11.6628 -15.7461
rtoes -7.48427
lfemur -18.6614 5.76817 -17.5888
ltibia 62.6777
lfoot 6.76639 4.88789
ltoes -13.0419
337
root -0.677909 18.0364 14.786 -126.292 -80.9553 140.356
lowerback -5.27302 -1.23911 -4.83473
upperback -5.2821 -1.63699 1.69915
thorax -2.33391 -0.708601 4.42238
lowerneck -2.51441 -6.57194 -5.89701
upperneck 11.3276 -9.09147 3.78797
head 4.24383 -4.61339 1.6741
rclavicle -4.10242e-014 2.94201e-014
rhumerus -59.2407 23.5281 -100.781
rradius 44.2367
rwrist -9.49584
rhand -9.07158 -31.8698
rfingers 7.12502
rthumb 16.8775 -61.1564
lclavicle -4.10242e-014 2.94201e-014
lhumerus -49.2892 -12.5595 84.3176
lradius 60.2081
lwrist 3.76482
lhand -17.6549 -9.53919
lfingers 7.12502
lthumb 8.60338 20.2655
rfemur -38.7903 -1.11059 28.4114
rtibia 35.7751
rfoot -12.0058 -15.6854
rtoes -8.83449
lfemur -20.2755 5.5484 -17.3734
ltibia 64.62
lfoot 6.18546 3.74044
ltoes -13.1394
338
root -0.829894 18.0444 14.7362 -128.174 -80.5394 142.208
lowerback -5.32318 -1.22522 -4.76616
upperback -5.28259 -1.62105 1.58788
thorax -2.31203 -0.705882 4.26703
lowerneck -2.41194 -6.48407 -5.92133
upperneck 11.4458 -9.00048 3.89492
head 4.26392 -4.56885 1.71715
rclavicle 7.20594e-016 -3.02153e-014
rhumerus -58.8136 23.1162 -100.106
rradius 44.6044
rwrist -8.73822
rhand -5.89478 -30.4462
rfingers 7.12502
rthumb 19.9335 -59.4439
lclavicle 7.20594e-016 -3.02153e-014
lhumerus -49.5944 -12.5758 84.7801
lradius 59.0118
lwrist 3.59981
lhand -17.4273 -9.40519
lfingers 7.12502
lthumb 8.82306 20.3904
rfemur -38.2383 -0.733989 28.3754
rtibia 35.9932
rfoot -12.4364 -15.7449
rtoes -9.28257
lfemur -21.773 5.4376 -17.4564
ltibia 66.282
lfoot 5.73452 2.45334
ltoes -15.4475
339
root -0.979476 18.0546 14.689 -129.224 -80.0559 143.254
lowerback -5.45744 -1.24032 -4.80836
upperback -5.23299 -1.63381 1.46411
thorax -2.18633 -0.717523 4.15736
lowerneck -2.4996 -6.40221 -5.98913
upperneck 11.6244 -8.9138 4.07676
head 4.3394 -4.52107 1.78165
rclavicle 9.36773e-015 -1.59028e-015
rhumerus -58.0617 22.8599 -99.3096
rradius 44.6914
rwrist -7.73492
rhand -4.12274 -29.7083
rfingers 7.12502
rthumb 21.6361 -58.5195
lclavicle 9.36773e-015 -1.59028e-015
lhumerus -49.7151 -12.3565 85.0641
lradius 57.7486
lwrist 2.70259
lhand -16.1399 -9.63708
lfingers 7.12502
lthumb 10.0652 20.1022
rfemur -37.7019 -0.798171 28.3224
rtibia 36.0586
rfoot -13.0918 -15.2976
rtoes -9.37477
lfemur -23.247 5.1317 -17.7172
ltibia 67.6536
lfoot 5.06962 1.82586
ltoes -17.0291
340
root -1.12937 18.0609 14.6392 -130.557 -79.5523 144.417
lowerback -5.42698 -1.19671 -5.0208
upperback -5.19754 -1.56877 1.42011
thorax -2.17106 -0.679843 4.23428
lowerneck -2.38546 -6.32969 -6.04776
upperneck 11.7629 -8.84004 4.14549
head 4.36427 -4.48881 1.81776
rclavicle -2.65626e-014 2.70347e-014
rhumerus -57.3486 22.6817 -98.4748
rradius 44.7784
rwrist -6.97648
rhand -5.36718 -30.4321
rfingers 7.12502
rthumb 20.4406 -59.3762
lclavicle -2.65626e-014 2.70347e-014
lhumerus -49.9272 -12.1927 85.4767
lradius 56.4604
lwrist 1.71043
lhand -14.9285 -10.1914
lfingers 7.12502
lthumb 11.2337 19.4878
rfemur -36.9176 -0.856195 28.2782
rtibia 36.033
rfoot -13.8222 -14.7999
rtoes -9.07599
lfemur -24.4719 4.61096 -17.9634
ltibia 68.7887
lfoot 4.19281 1.90186
ltoes -15.2152
341
root -1.28117 18.07 14.583 -132.73 -79.1998 146.39
lowerback -5.2857 -1.16777 -5.13839
upperback -5.18603 -1.53154 1.48995
thorax -2.23862 -0.654198 4.37798
lowerneck -2.56288 -6.32842 -5.94471
upperneck 12.1685 -8.83025 3.88426
head 4.50142 -4.49417 1.71013
rclavicle -8.74653e-015 -7.95139e-016
rhumerus -56.8915 22.4899 -97.787
rradius 45.1741
rwrist -6.59479
rhand -6.45285 -31.3159
rfingers 7.12502
rthumb 19.397 -60.3684
lclavicle -8.74653e-015 -7.95139e-016
lhumerus -50.3139 -12.0802 86.1052
lradius 55.3159
lwrist 1.85564
lhand -14.8223 -10.2369
lfingers 7.12502
lthumb 11.3361 19.4368
rfemur -35.974 -0.396774 28.3547
rtibia 35.936
rfoot -14.3697 -14.9298
rtoes -9.00443
lfemur -25.6536 4.13052 -17.9435
ltibia 69.7853
lfoot 3.35181 1.67003
ltoes -15.6843
342
root -1.42947 18.0829 14.5279 -134.673 -78.7463 148.247
lowerback -5.24343 -1.16443 -5.19026
upperback -5.17479 -1.528 1.45735
thorax -2.25084 -0.651324 4.37418
lowerneck -3.00537 -6.33404 -5.55118
upperneck 12.7074 -8.82686 3.52034
head 4.70675 -4.49198 1.51367
rclavicle 1.13556e-014 -4.77083e-015
rhumerus -56.4697 22.3304 -97.3414
rradius 45.6469
rwrist -6.42719
rhand -6.87223 -31.4196
rfingers 7.12502
rthumb 18.9937 -60.5122
lclavicle 1.13556e-014 -4.77083e-015
lhumerus -50.6008 -11.7645 86.4112
lradius 54.1051
lwrist 2.08233
lhand -14.8273 -10.4859
lfingers 7.12502
lthumb 11.3313 19.188
rfemur -35.1178 0.324567 28.3018
rtibia 35.7492
rfoot -14.8385 -15.1627
rtoes -8.84613
lfemur -26.9872 3.62743 -18.0029
ltibia 70.6612
lfoot 2.53616 1.57413
ltoes -15.5483
